<?xml version="1.0" encoding="utf-8"?>
<!-- Generator: Adobe Illustrator 25.2.3, SVG Export Plug-In . SVG Version: 6.00 Build 0)  -->
<svg version="1.1" id="Capa_1" xmlns="http://www.w3.org/2000/svg" xmlns:xlink="http://www.w3.org/1999/xlink" x="0px" y="0px"
	 viewBox="0 0 240.9 230" style="enable-background:new 0 0 240.9 230;" xml:space="preserve">
<style type="text/css">
	.st0{fill:#A5A5A5;}
	.st1{fill:#164481;}
	.st2{fill:#A6A6A6;}
	.st3{fill:#174482;}
	.st4{fill:#184580;}
	.st5{fill:#1C4884;}
	.st6{fill:#19447F;}
	.st7{fill:#204B85;}
	.st8{fill:#1A427A;}
	.st9{fill:#19437B;}
	.st10{fill:#FDFDFD;}
	.st11{fill:#F6F8FA;}
	.st12{fill:#F9FAFB;}
	.st13{fill:#FCFCFC;}
</style>
<path class="st0" d="M167.01,69.99c9.35-0.29,18.28-2.88,27.22-5.24c7.36-1.95,13.17,2.18,19.31,4.62c2.81,1.12,1.98,5.46-1.38,7.77
	c-5,3.43-10.79,5.2-16.56,6.71c-6.56,1.71-13.23,3.15-19.95,4.04c-4.17,0.55-6.27,2.31-6.75,6.31c-2.95,8.2-6.53,16.14-10.24,24.02
	c-2.64,5.59-5.92,6.95-10.77,4.62c0.03-5.33-0.11-10.67,0.14-15.98c0.15-3.28-1.16-5.39-3.27-7.83c-4.15-4.79-8.77-5.55-14.69-4.44
	c-8.25,1.55-16.57-0.48-24.88-0.61c-3.35-0.05-5.3,0.55-5.8,4.17c-0.2,1.48-0.24,3.42-2.5,3.85c-2.16,0.4-2.81-1.26-3.92-2.44
	c-2.73-2.91-4-7.24-9.06-7.9c-2.09-0.27,0.44-3.86-1.95-5.49c-2.86-1.94-5.22-4.63-7.73-7.06c-1.81-1.75-5.76-3.38-4.45-5.68
	c1.9-3.32,5.05,0.09,7.43,0.95c3.86,1.38,7.47,3.44,11.75,5.47c0-3.14-0.01-5.57,0-8.01c0.02-3.93,1.58-4.88,5.23-3.08
	c3.39,1.67,5.66,4.62,7.89,7.5c2.73,3.54,5.48,5.81,10.5,3.97c3.66-1.35,7.77-1.48,12.57-2.3c-3.8-4.1-6.85-7.89-11.05-10.55
	c-10.82-6.85-21.67-13.64-32.41-20.6c-1.23-0.8-4.27-1.15-2.87-3.59c1.07-1.87,3.49-2.65,5.77-1.82
	c24.83,9.4,49.55,19.13,74.34,28.65C161.62,68.6,164.32,69.9,167.01,69.99z"/>
<path class="st0" d="M191.13,139.46c1.22,20.32-15.63,29.7-32.64,27.03c-21.97-3.44-40.16-14.46-57.3-27.5
	c-27.2-20.7-49.68-45.6-64.95-76.48c-5.47-11.06-9.4-22.59-9.26-35.27C27.14,11.88,38.73,0.17,56.27,1.7
	c10.13,0.88,19.48,3.76,28.6,7.87c2.49,1.12,5.15,2.54,3.65,5.93c-1.52,3.43-4.15,2.26-6.73,1.13c-7.93-3.46-16.09-5.98-24.75-7.17
	C44.27,7.73,35.17,15.2,35,28.03c-0.21,16.03,6.62,29.72,14.66,42.77c21.3,34.58,49.64,61.84,85.98,80.37
	c9.22,4.7,18.99,7.95,29.56,7.8c12.45-0.17,19.89-8.98,18.4-21.47c-1.07-8.98-3.5-17.55-7.35-25.71c-1.17-2.48-1.84-4.95,1.1-6.44
	c3.22-1.64,4.81,0.44,6.01,3.2C187.64,118.34,191.31,128.26,191.13,139.46z"/>
<path class="st1" d="M167.01,69.99c-2.69,2.15-5.39,0.54-8.08,0.01c-6.34-18.83-18.95-31.43-38.12-36.54
	c-23.93-6.37-49.37,4.37-61.76,27.07c-0.56,1.02-0.99,2.12-1.65,3.06c-1.27,1.79-3.16,1.89-4.91,1.11c-1.69-0.76-2.2-2.41-1.78-4.21
	c0.73-3.13,2.47-5.79,4.26-8.37c14.54-21.04,34.92-30.79,60-27.75c24.31,2.94,41.17,17.06,50.25,40.02
	C165.93,66.2,166.42,68.12,167.01,69.99z"/>
<path class="st2" d="M4.05,195.97c0-5.15,0.09-10.29-0.04-15.44c-0.06-2.45,0.61-3.7,3.3-3.67c15.02-2.3,25.27-0.78,26.63,16.48
	c0.39,4.52-0.28,8.94-1.67,13.22c-1.97,6.09-6.1,9.27-12.5,9.51c-4.14,0.16-8.3-0.18-12.44-0.07c-2.73,0.08-3.37-1.18-3.33-3.61
	C4.12,206.93,4.05,201.45,4.05,195.97z"/>
<path class="st1" d="M152.99,203c0,3.16,0.11,6.32-0.05,9.47c-0.06,1.22,1.01,3.27-1.48,3.43c-1.57,0.1-3.57,0.63-4.15-1.61
	c-0.63-2.43-1.75-1.62-3.16-0.82c-1.43,0.81-2.92,1.62-4.49,2.06c-9.96,3.45-16.46-4.31-13.35-13.79c1.85-6.17,9.22-5.79,14.52-6.23
	c1.63-0.17,4.11,0.75,3.79-2.38c-0.24-2.35-1.33-4.27-4.08-4c-3.12,0.31-6.3,0.61-9.28,1.49c-2.69,0.79-3.55-0.25-4.22-2.5
	c-0.69-2.35,0.39-3.26,2.45-3.85c4.86-1.38,9.81-1.83,14.79-1.26c5.18,0.6,8.34,4.51,8.66,10.5c0.17,3.15,0.03,6.32,0.03,9.48
	C152.98,203,152.99,203,152.99,203z"/>
<path class="st3" d="M193.74,182.82c10.13-0.06,16.41,7.95,13.98,17.65c-0.47,1.87-1.64,1.79-2.95,1.8
	c-4.15,0.03-8.32-0.1-12.46,0.09c-1.51,0.07-4.15-1.28-4.24,1.79c-0.5,7.93,9.16,6.22,14.02,4.3c3.01-1.09,3.12,0.75,4.03,2.63
	c1.26,2.61-0.34,3.13-2.1,3.69c-3.33,1.06-6.77,1.65-10.27,1.62c-8.39-0.09-12.62-3.98-14.05-12.36c-0.77-4.55-0.5-8.95,1.1-13.21
	C182.89,185.28,186.97,182.86,193.74,182.82z"/>
<path class="st2" d="M58.26,202.13c-1.66,0-3.33-0.09-4.99,0.03c-1.79,0.14-4.37-0.86-4.38,2.44c0,3.03,1.14,5.12,4.55,5.37
	c3.23,0.24,6.31-0.5,9.26-1.53c2.63-0.92,3.08,0.53,3.83,2.37c0.85,2.08,0,3.02-1.78,3.84c-6.81,3.14-17.55,1.76-21.41-2.81
	c-4.28-5.08-4.71-17.83-0.79-23.66c3.5-5.21,12.68-7.19,18.98-4.08c4.86,2.4,8.22,11.21,6.39,16.44c-0.52,1.49-1.53,1.56-2.7,1.58
	C62.92,202.15,60.59,202.13,58.26,202.13z"/>
<path class="st1" d="M71.19,177.15c1.14-0.07,1.97-0.04,2.78-0.18c4.65-0.83,6.57,0.88,7.33,5.78c1.25,8.09,3.54,16.02,6.35,24.05
	c1.76-7.55,3.59-15.09,5.27-22.66c1.75-7.83,1.69-7.84,10.28-6.69c-3.42,12.12-6.86,24.18-10.2,36.26c-1.06,3.83-4.05,1.99-6.2,2.18
	c-2.09,0.19-4.72,1.05-5.63-2.33C77.92,201.46,74.56,189.41,71.19,177.15z"/>
<path class="st4" d="M227.65,182.84c0.71,0.08,2.84,0.38,4.99,0.53c3.24,0.22,3.83,1.81,3.43,4.89c-0.49,3.85-2.81,1.73-4.35,1.68
	c-2.47-0.09-4.92-0.6-7.39-0.81c-1.42-0.12-2.73,0.39-3.11,1.9c-0.38,1.55,0.69,2.6,1.93,3.1c7.17,3.08,16.19,3.07,14.8,13.23
	c-1.25,10.44-13.14,9.74-21.04,7.71c-3.74-0.86-4.26-2.62-2.93-5.89c0.74-1.83,1.37-2.11,3.22-1.38c2.44,0.97,5.05,1.57,7.65,2.02
	c2,0.35,4.25,0.23,4.91-2.22c1.19-4.47-6.44-5-9.28-6.36c-5.68-2.12-8.3-5.94-7.42-10.71C214.27,183.86,220.43,182.46,227.65,182.84
	z"/>
<path class="st1" d="M88.73,146.03c-3.91-0.95-8.15-2.79-12.14-5.15c-14.28-8.45-24.06-20.51-29.04-36.42
	c-0.85-2.72-0.89-5.22,2.03-6.22c3.25-1.12,4.61,1.1,5.56,4c5.72,17.47,17.12,29.54,34.5,35.81c2.45,0.88,4.88,1.98,4.26,5.14
	C93.47,145.39,91.69,146.38,88.73,146.03z"/>
<path class="st5" d="M163.27,201c0-4.49,0.25-9.01-0.08-13.48c-0.28-3.8,1.74-3.87,4.54-3.91c2.74-0.04,4.35,0.29,4.17,3.7
	c-0.54,10.12,0.87,20.32-0.88,30.39c-1.09,6.26-6.93,9.84-12.96,8.47c-2.02-0.46-2.9-1.23-2.3-3.38c0.44-1.58-0.37-4.01,2.73-3.42
	c4.06,0.77,4.81-1.6,4.76-4.89c-0.07-4.49-0.02-8.99-0.02-13.48C163.24,201,163.26,201,163.27,201z"/>
<path class="st6" d="M147.89,122.84c4.89,1.39,7.63-0.74,9.67-5.16c3.64-7.89,6.53-16.15,11.34-23.48
	c-3.2,20.94-13.82,36.79-32.39,47.17c-0.58,0.32-1.17,0.62-1.76,0.91c-2.25,1.13-4.41,1.64-6.03-1c-1.74-2.84,0.21-4.49,2.22-5.63
	C137.16,132.12,142.77,127.82,147.89,122.84z"/>
<path class="st7" d="M117.79,200c0,4.32-0.24,8.66,0.07,12.96c0.26,3.58-1.62,3.69-4.24,3.55c-2.33-0.13-4.68,0.59-4.47-3.53
	c0.43-8.31,0.79-16.65,0.03-24.94c-0.44-4.84,2.05-4.2,4.73-4.41c3.06-0.24,4.13,0.81,3.95,3.91c-0.24,4.14-0.06,8.31-0.06,12.46
	C117.8,200,117.8,200,117.79,200z"/>
<path class="st8" d="M113.34,179.08c-2.08-0.21-4.68,0.97-4.48-2.83c0.21-3.92,3.02-2.24,4.72-2.3c1.73-0.06,4.55-1.46,4.55,2.45
	C118.14,180.73,114.94,178.4,113.34,179.08z"/>
<path class="st9" d="M167.34,179.06c-2.19-0.13-4.69,0.85-4.47-2.88c0.23-4,3.1-2.11,4.78-2.23c1.74-0.13,4.55-1.38,4.49,2.52
	C172.08,180.8,168.86,178.34,167.34,179.06z"/>
<path class="st10" d="M12.18,196.17c0-2.32,0.13-4.65-0.03-6.96c-0.24-3.34,0.18-5.87,4.43-5.94c3.8-0.07,6.76,0.39,7.65,5.02
	c1.07,5.64,1.17,11.15-0.25,16.7c-1.37,5.36-5.69,4.13-9.33,3.98c-3.89-0.16-2.19-3.38-2.4-5.35
	C11.99,201.17,12.18,198.66,12.18,196.17z"/>
<path class="st11" d="M140.3,201.08c2.46-0.05,4.61-0.12,4.59,3.49c-0.02,5.06-4,4.68-6.95,5.19c-2.89,0.5-4.02-1.6-3.97-4.38
	C134.05,200.88,137.35,201.25,140.3,201.08z"/>
<path class="st12" d="M192.81,196.62c-1.74-0.71-4.75,1.47-4.67-2.05c0.07-3.31,1.97-5.52,5.66-5.56c3.13-0.04,5.18,1.21,5.14,4.58
	C198.87,198.86,194.48,194.9,192.81,196.62z"/>
<path class="st13" d="M54.15,196.49c-1.97-1.01-5.05,1.95-5.18-2.23c-0.12-3.57,2.05-4.96,5.24-5.24c3.59-0.32,5.52,1.84,5.38,4.94
	C59.41,198.23,55.48,194.75,54.15,196.49z"/>
</svg>
